<svg xmlns="http://www.w3.org/2000/svg" viewBox="0 0 780 440" font-family="'Menlo','DejaVu Sans Mono','Consolas',monospace">
  <defs>
    <filter id="glow-t">
      <feGaussianBlur stdDeviation="2" result="blur"/>
      <feFlood flood-color="#ffcc00" flood-opacity="0.15" result="color"/>
      <feComposite in="color" in2="blur" operator="in" result="glow"/>
      <feMerge><feMergeNode in="glow"/><feMergeNode in="SourceGraphic"/></feMerge>
    </filter>
  </defs>

  <rect width="780" height="440" fill="#0a0a0e"/>

  <!-- Title -->
  <text x="390" y="30" text-anchor="middle" fill="#ffcc00" font-size="12" font-weight="bold" letter-spacing="3" filter="url(#glow-t)">FAILURE TAXONOMY</text>
  <text x="390" y="46" text-anchor="middle" fill="#7a6b52" font-size="8">35 documented failures across Claude and Codex, classified into 4 families</text>

  <!-- Root node -->
  <rect x="310" y="62" width="160" height="30" rx="2" fill="rgba(255,204,0,0.1)" stroke="#ffcc00" stroke-width="1"/>
  <text x="390" y="82" text-anchor="middle" fill="#ffcc00" font-size="9" font-weight="bold">LLM FAILURES</text>

  <!-- Trunk lines to 4 families -->
  <line x1="390" y1="92" x2="390" y2="110" stroke="#7a6b52" stroke-width="1"/>
  <line x1="100" y1="110" x2="680" y2="110" stroke="#7a6b52" stroke-width="1"/>

  <!-- Drop lines to each family -->
  <line x1="100" y1="110" x2="100" y2="130" stroke="#cc8800" stroke-width="1"/>
  <line x1="295" y1="110" x2="295" y2="130" stroke="#ff3300" stroke-width="1"/>
  <line x1="485" y1="110" x2="485" y2="130" stroke="#4a9" stroke-width="1"/>
  <line x1="680" y1="110" x2="680" y2="130" stroke="#cc8800" stroke-width="1"/>

  <!-- ===== FAMILY 1: MEMORY (amber) ===== -->
  <rect x="20" y="130" width="160" height="30" rx="2" fill="rgba(204,136,0,0.12)" stroke="#cc8800" stroke-width="1.5"/>
  <text x="100" y="150" text-anchor="middle" fill="#cc8800" font-size="9" font-weight="bold">MEMORY</text>

  <!-- Memory sub-patterns -->
  <line x1="100" y1="160" x2="100" y2="178" stroke="#cc8800" stroke-width="0.5"/>
  <line x1="40" y1="178" x2="160" y2="178" stroke="#cc8800" stroke-width="0.5"/>

  <!-- P4 -->
  <line x1="40" y1="178" x2="40" y2="192" stroke="#cc8800" stroke-width="0.5"/>
  <rect x="8" y="192" width="64" height="52" rx="2" fill="rgba(204,136,0,0.06)" stroke="#7a6b52" stroke-width="0.5"/>
  <text x="40" y="206" text-anchor="middle" fill="#cc8800" font-size="7" font-weight="bold">P4</text>
  <text x="40" y="218" text-anchor="middle" fill="#e8d4b0" font-size="6.5">Repeated</text>
  <text x="40" y="229" text-anchor="middle" fill="#e8d4b0" font-size="6.5">procedural</text>
  <text x="40" y="240" text-anchor="middle" fill="#e8d4b0" font-size="6.5">instructions</text>

  <!-- P1 -->
  <line x1="100" y1="178" x2="100" y2="192" stroke="#cc8800" stroke-width="0.5"/>
  <rect x="68" y="192" width="64" height="52" rx="2" fill="rgba(204,136,0,0.06)" stroke="#7a6b52" stroke-width="0.5"/>
  <text x="100" y="206" text-anchor="middle" fill="#cc8800" font-size="7" font-weight="bold">P1</text>
  <text x="100" y="218" text-anchor="middle" fill="#e8d4b0" font-size="6.5">Repeated</text>
  <text x="100" y="229" text-anchor="middle" fill="#e8d4b0" font-size="6.5">decisions</text>

  <!-- Context drift -->
  <line x1="160" y1="178" x2="160" y2="192" stroke="#cc8800" stroke-width="0.5"/>
  <rect x="128" y="192" width="64" height="52" rx="2" fill="rgba(204,136,0,0.06)" stroke="#7a6b52" stroke-width="0.5"/>
  <text x="160" y="210" text-anchor="middle" fill="#e8d4b0" font-size="6.5">Context</text>
  <text x="160" y="221" text-anchor="middle" fill="#e8d4b0" font-size="6.5">drift within</text>
  <text x="160" y="232" text-anchor="middle" fill="#e8d4b0" font-size="6.5">& across</text>
  <text x="160" y="243" text-anchor="middle" fill="#e8d4b0" font-size="6.5">sessions</text>

  <!-- ===== FAMILY 2: CALIBRATION (red) ===== -->
  <rect x="215" y="130" width="160" height="30" rx="2" fill="rgba(255,51,0,0.1)" stroke="#ff3300" stroke-width="1.5"/>
  <text x="295" y="150" text-anchor="middle" fill="#ff3300" font-size="9" font-weight="bold">CALIBRATION</text>

  <line x1="295" y1="160" x2="295" y2="178" stroke="#ff3300" stroke-width="0.5"/>
  <line x1="228" y1="178" x2="362" y2="178" stroke="#ff3300" stroke-width="0.5"/>

  <!-- P5 -->
  <line x1="228" y1="178" x2="228" y2="192" stroke="#ff3300" stroke-width="0.5"/>
  <rect x="196" y="192" width="64" height="52" rx="2" fill="rgba(255,51,0,0.04)" stroke="#7a6b52" stroke-width="0.5"/>
  <text x="228" y="206" text-anchor="middle" fill="#ff3300" font-size="7" font-weight="bold">P5</text>
  <text x="228" y="218" text-anchor="middle" fill="#e8d4b0" font-size="6.5">Provenance-</text>
  <text x="228" y="229" text-anchor="middle" fill="#e8d4b0" font-size="6.5">free status</text>
  <text x="228" y="240" text-anchor="middle" fill="#e8d4b0" font-size="6.5">reporting</text>

  <!-- P7a -->
  <line x1="295" y1="178" x2="295" y2="192" stroke="#ff3300" stroke-width="0.5"/>
  <rect x="263" y="192" width="64" height="52" rx="2" fill="rgba(255,51,0,0.04)" stroke="#7a6b52" stroke-width="0.5"/>
  <text x="295" y="206" text-anchor="middle" fill="#ff3300" font-size="7" font-weight="bold">P7</text>
  <text x="295" y="218" text-anchor="middle" fill="#e8d4b0" font-size="6.5">Volume as</text>
  <text x="295" y="229" text-anchor="middle" fill="#e8d4b0" font-size="6.5">validation</text>

  <!-- Result inflation -->
  <line x1="362" y1="178" x2="362" y2="192" stroke="#ff3300" stroke-width="0.5"/>
  <rect x="330" y="192" width="64" height="52" rx="2" fill="rgba(255,51,0,0.04)" stroke="#7a6b52" stroke-width="0.5"/>
  <text x="362" y="210" text-anchor="middle" fill="#e8d4b0" font-size="6.5">Result</text>
  <text x="362" y="221" text-anchor="middle" fill="#e8d4b0" font-size="6.5">inflation</text>
  <text x="362" y="232" text-anchor="middle" fill="#e8d4b0" font-size="6.5">in reporting</text>

  <!-- ===== FAMILY 3: BEHAVIORAL (teal) ===== -->
  <rect x="405" y="130" width="160" height="30" rx="2" fill="rgba(74,153,136,0.12)" stroke="#4a9" stroke-width="1.5"/>
  <text x="485" y="150" text-anchor="middle" fill="#4a9" font-size="9" font-weight="bold">BEHAVIORAL</text>

  <line x1="485" y1="160" x2="485" y2="178" stroke="#4a9" stroke-width="0.5"/>
  <line x1="418" y1="178" x2="552" y2="178" stroke="#4a9" stroke-width="0.5"/>

  <!-- P6 -->
  <line x1="418" y1="178" x2="418" y2="192" stroke="#4a9" stroke-width="0.5"/>
  <rect x="386" y="192" width="64" height="52" rx="2" fill="rgba(74,153,136,0.06)" stroke="#7a6b52" stroke-width="0.5"/>
  <text x="418" y="206" text-anchor="middle" fill="#4a9" font-size="7" font-weight="bold">P6</text>
  <text x="418" y="218" text-anchor="middle" fill="#e8d4b0" font-size="6.5">Correction</text>
  <text x="418" y="229" text-anchor="middle" fill="#e8d4b0" font-size="6.5">stored, not</text>
  <text x="418" y="240" text-anchor="middle" fill="#e8d4b0" font-size="6.5">enforced</text>

  <!-- P9 -->
  <line x1="463" y1="178" x2="463" y2="192" stroke="#4a9" stroke-width="0.5"/>
  <rect x="441" y="192" width="44" height="52" rx="2" fill="rgba(74,153,136,0.06)" stroke="#7a6b52" stroke-width="0.5"/>
  <text x="463" y="206" text-anchor="middle" fill="#4a9" font-size="7" font-weight="bold">P9</text>
  <text x="463" y="218" text-anchor="middle" fill="#e8d4b0" font-size="6">Sycoph.</text>
  <text x="463" y="229" text-anchor="middle" fill="#e8d4b0" font-size="6">collapse</text>

  <!-- P10 -->
  <line x1="507" y1="178" x2="507" y2="192" stroke="#4a9" stroke-width="0.5"/>
  <rect x="487" y="192" width="40" height="52" rx="2" fill="rgba(74,153,136,0.06)" stroke="#7a6b52" stroke-width="0.5"/>
  <text x="507" y="206" text-anchor="middle" fill="#4a9" font-size="7" font-weight="bold">P10</text>
  <text x="507" y="218" text-anchor="middle" fill="#e8d4b0" font-size="6">Point-</text>
  <text x="507" y="229" text-anchor="middle" fill="#e8d4b0" font-size="6">fix</text>

  <!-- P11 -->
  <line x1="552" y1="178" x2="552" y2="192" stroke="#4a9" stroke-width="0.5"/>
  <rect x="529" y="192" width="46" height="52" rx="2" fill="rgba(74,153,136,0.06)" stroke="#7a6b52" stroke-width="0.5"/>
  <text x="552" y="206" text-anchor="middle" fill="#4a9" font-size="7" font-weight="bold">P11</text>
  <text x="552" y="218" text-anchor="middle" fill="#e8d4b0" font-size="6">Intent</text>
  <text x="552" y="229" text-anchor="middle" fill="#e8d4b0" font-size="6">gated</text>

  <!-- ===== FAMILY 4: OPERATIONAL (amber variant) ===== -->
  <rect x="600" y="130" width="160" height="30" rx="2" fill="rgba(204,136,0,0.12)" stroke="#cc8800" stroke-width="1.5"/>
  <text x="680" y="150" text-anchor="middle" fill="#cc8800" font-size="9" font-weight="bold">OPERATIONAL</text>

  <line x1="680" y1="160" x2="680" y2="178" stroke="#cc8800" stroke-width="0.5"/>
  <line x1="613" y1="178" x2="747" y2="178" stroke="#cc8800" stroke-width="0.5"/>

  <!-- P7b (namespace) -->
  <line x1="613" y1="178" x2="613" y2="192" stroke="#cc8800" stroke-width="0.5"/>
  <rect x="581" y="192" width="64" height="52" rx="2" fill="rgba(204,136,0,0.06)" stroke="#7a6b52" stroke-width="0.5"/>
  <text x="613" y="206" text-anchor="middle" fill="#cc8800" font-size="7" font-weight="bold">P7</text>
  <text x="613" y="218" text-anchor="middle" fill="#e8d4b0" font-size="6.5">Namespace</text>
  <text x="613" y="229" text-anchor="middle" fill="#e8d4b0" font-size="6.5">collision</text>

  <!-- P8 -->
  <line x1="680" y1="178" x2="680" y2="192" stroke="#cc8800" stroke-width="0.5"/>
  <rect x="648" y="192" width="64" height="52" rx="2" fill="rgba(204,136,0,0.06)" stroke="#7a6b52" stroke-width="0.5"/>
  <text x="680" y="206" text-anchor="middle" fill="#cc8800" font-size="7" font-weight="bold">P8</text>
  <text x="680" y="218" text-anchor="middle" fill="#e8d4b0" font-size="6.5">Multi-hop</text>
  <text x="680" y="229" text-anchor="middle" fill="#e8d4b0" font-size="6.5">query</text>
  <text x="680" y="240" text-anchor="middle" fill="#e8d4b0" font-size="6.5">collapse</text>

  <!-- Scale bias -->
  <line x1="747" y1="178" x2="747" y2="192" stroke="#cc8800" stroke-width="0.5"/>
  <rect x="715" y="192" width="64" height="52" rx="2" fill="rgba(204,136,0,0.06)" stroke="#7a6b52" stroke-width="0.5"/>
  <text x="747" y="210" text-anchor="middle" fill="#e8d4b0" font-size="6.5">Scale-</text>
  <text x="747" y="221" text-anchor="middle" fill="#e8d4b0" font-size="6.5">before-</text>
  <text x="747" y="232" text-anchor="middle" fill="#e8d4b0" font-size="6.5">validate</text>

  <!-- Case study counts under each family -->
  <text x="100" y="262" text-anchor="middle" fill="#7a6b52" font-size="7">7 of 35 cases</text>
  <text x="295" y="262" text-anchor="middle" fill="#7a6b52" font-size="7">6 of 35 cases</text>
  <text x="485" y="262" text-anchor="middle" fill="#7a6b52" font-size="7">12 of 35 cases</text>
  <text x="680" y="262" text-anchor="middle" fill="#7a6b52" font-size="7">10 of 35 cases</text>

  <!-- Bottom section: what the memory system addresses -->
  <line x1="40" y1="282" x2="740" y2="282" stroke="#7a6b52" stroke-width="0.5"/>
  <text x="390" y="302" text-anchor="middle" fill="#cc8800" font-size="9" letter-spacing="2">SYSTEM COVERAGE</text>

  <!-- Coverage boxes -->
  <rect x="30" y="316" width="170" height="44" rx="2" fill="rgba(74,153,136,0.06)" stroke="#4a9" stroke-width="0.75"/>
  <text x="115" y="333" text-anchor="middle" fill="#4a9" font-size="8">Locked beliefs</text>
  <text x="115" y="348" text-anchor="middle" fill="#7a6b52" font-size="7">11 case studies depend on L0</text>

  <rect x="215" y="316" width="170" height="44" rx="2" fill="rgba(74,153,136,0.06)" stroke="#4a9" stroke-width="0.75"/>
  <text x="300" y="333" text-anchor="middle" fill="#4a9" font-size="8">SUPERSEDES edges</text>
  <text x="300" y="348" text-anchor="middle" fill="#7a6b52" font-size="7">4 case studies, conflict resolution</text>

  <rect x="400" y="316" width="170" height="44" rx="2" fill="rgba(74,153,136,0.06)" stroke="#4a9" stroke-width="0.75"/>
  <text x="485" y="333" text-anchor="middle" fill="#4a9" font-size="8">Output gating</text>
  <text x="485" y="348" text-anchor="middle" fill="#7a6b52" font-size="7">2 case studies, most critical</text>

  <rect x="585" y="316" width="170" height="44" rx="2" fill="rgba(74,153,136,0.06)" stroke="#4a9" stroke-width="0.75"/>
  <text x="670" y="333" text-anchor="middle" fill="#4a9" font-size="8">FTS5 + graph</text>
  <text x="670" y="348" text-anchor="middle" fill="#7a6b52" font-size="7">6 case studies, retrieval path</text>

  <!-- Test results -->
  <text x="390" y="388" text-anchor="middle" fill="#7a6b52" font-size="7">62/65 acceptance tests pass (95.4%) | 3 skipped (require behavioral hooks not yet built: CS-012, CS-024, CS-026)</text>

  <!-- Footer -->
  <line x1="40" y1="404" x2="740" y2="404" stroke="#7a6b52" stroke-width="0.5"/>
  <text x="390" y="420" text-anchor="middle" fill="#7a6b52" font-size="7">Each case study: verbatim transcript + root cause analysis + pattern classification + acceptance test with pass/fail criteria</text>
  <text x="390" y="434" text-anchor="middle" fill="#7a6b52" font-size="7">Full case studies: research/CASE_STUDIES.md | Acceptance tests: tests/acceptance/</text>
</svg>